<svg width="57" height="33" viewBox="0 0 57 33" fill="none" xmlns="http://www.w3.org/2000/svg">
<circle cx="13.5" cy="16.5" r="10.5" stroke="#26C1FC" stroke-width="2"/>
<circle cx="43" cy="17" r="11" stroke="#F5A72B" stroke-width="2"/>
<g filter="url(#filter0_d_416_68)">
<rect x="38" y="13.1662" width="1.63416" height="12.4258" rx="0.81708" transform="rotate(-45.5328 38 13.1662)" fill="#222831"/>
<rect x="46.8673" y="12" width="1.63416" height="12.4258" rx="0.81708" transform="rotate(45.53 46.8673 12)" fill="#222831"/>
</g>
<g filter="url(#filter1_d_416_68)">
<rect x="8" y="17.7599" width="1.68474" height="5.79011" rx="0.842372" transform="rotate(-45.5328 8 17.7599)" fill="#222831"/>
<path d="M18.0728 13.5752C18.383 13.2575 18.892 13.2515 19.2096 13.5616V13.5616C19.532 13.8764 19.5327 14.3947 19.2113 14.7104L16.6108 17.2641C16.1622 17.7047 15.4031 17.4466 15.316 16.8239V16.8239C15.2831 16.5892 15.3609 16.3525 15.5265 16.1829L18.0728 13.5752Z" fill="#222831"/>
<path d="M18.0013 13.6229C18.3088 13.3203 18.8027 13.3223 19.1078 13.6273V13.6273C19.1444 13.6639 19.1774 13.7041 19.2062 13.7472V13.7472C19.4159 14.0618 19.3761 14.4813 19.1102 14.7501L12.7245 21.204C12.3966 21.5355 11.863 21.5415 11.5276 21.2176V21.2176C11.1833 20.885 11.1807 20.3339 11.522 19.9982L18.0013 13.6229Z" fill="#222831"/>
</g>
<defs>
<filter id="filter0_d_416_68" x="30.3384" y="4.33841" width="25.3356" height="25.1941" filterUnits="userSpaceOnUse" color-interpolation-filters="sRGB">
<feFlood flood-opacity="0" result="BackgroundImageFix"/>
<feColorMatrix in="SourceAlpha" type="matrix" values="0 0 0 0 0 0 0 0 0 0 0 0 0 0 0 0 0 0 127 0" result="hardAlpha"/>
<feOffset/>
<feGaussianBlur stdDeviation="4"/>
<feComposite in2="hardAlpha" operator="out"/>
<feColorMatrix type="matrix" values="0 0 0 0 0 0 0 0 0 0 0 0 0 0 0 0 0 0 0.11 0"/>
<feBlend mode="normal" in2="BackgroundImageFix" result="effect1_dropShadow_416_68"/>
<feBlend mode="normal" in="SourceGraphic" in2="effect1_dropShadow_416_68" result="shape"/>
</filter>
<filter id="filter1_d_416_68" x="0.348877" y="5.33292" width="27.103" height="24.1341" filterUnits="userSpaceOnUse" color-interpolation-filters="sRGB">
<feFlood flood-opacity="0" result="BackgroundImageFix"/>
<feColorMatrix in="SourceAlpha" type="matrix" values="0 0 0 0 0 0 0 0 0 0 0 0 0 0 0 0 0 0 127 0" result="hardAlpha"/>
<feOffset/>
<feGaussianBlur stdDeviation="4"/>
<feComposite in2="hardAlpha" operator="out"/>
<feColorMatrix type="matrix" values="0 0 0 0 0 0 0 0 0 0 0 0 0 0 0 0 0 0 0.11 0"/>
<feBlend mode="normal" in2="BackgroundImageFix" result="effect1_dropShadow_416_68"/>
<feBlend mode="normal" in="SourceGraphic" in2="effect1_dropShadow_416_68" result="shape"/>
</filter>
</defs>
</svg>
