<svg width="28" height="28" viewBox="0 0 28 28" fill="none" xmlns="http://www.w3.org/2000/svg">
<path d="M18.7222 22.9645C18.8182 23.0605 18.7792 23.2285 18.6492 23.2705C10.9492 25.7365 2.61722 21.7675 0.0552207 14.3285C-0.0167793 14.1185 -0.0167793 13.8845 0.0552207 13.6735C0.798221 11.5165 2.04522 9.6265 3.64322 8.1005C3.70422 8.0425 3.80122 8.0445 3.86022 8.1035L8.16222 12.4055C8.19222 12.4355 8.20322 12.4775 8.19322 12.5185C7.07722 16.8635 11.1412 20.9135 15.4692 19.8125C15.5182 19.7995 15.5642 19.8085 15.6002 19.8445C15.9582 20.2015 18.0452 22.2875 18.7222 22.9645Z" fill="#222831"/>
<path d="M22.6803 21.2663C25.0863 19.5743 26.9612 17.1873 27.9462 14.3253C28.0182 14.1153 28.0182 13.8853 27.9462 13.6753C25.9542 7.88825 20.3502 4.00025 14.0002 4.00025C11.5212 4.00025 9.15925 4.59725 7.07925 5.66525L1.70725 0.29325C1.31625 -0.09775 0.68425 -0.09775 0.29325 0.29325C-0.09775 0.68425 -0.09775 1.31625 0.29325 1.70725L26.2932 27.7073C26.6842 28.0983 27.3163 28.0983 27.7073 27.7073C28.0983 27.3163 28.0983 26.6842 27.7073 26.2932L22.6803 21.2663ZM14.0002 8.00025C17.3092 8.00025 20.0002 10.6912 20.0002 14.0002C20.0002 15.2942 19.5843 16.4903 18.8853 17.4713L10.5293 9.11525C11.5103 8.41625 12.7062 8.00025 14.0002 8.00025Z" fill="#222831"/>
</svg>
